<svg width="286" height="157" viewBox="0 0 286 157" fill="none" xmlns="http://www.w3.org/2000/svg">
<g clip-path="url(#clip0)">
<path d="M27.4532 83.0384C23.1644 60.6278 13.5826 58.6744 6.21463 47.3625C-0.493141 37.073 -5.90262 20.2401 13.0278 8.20602C42.4333 -10.5021 78.4966 8.64109 78.4966 8.64109C78.4966 8.64109 135.643 34.3103 145.63 35.6155C155.617 36.9208 180.029 49.9729 210.544 34.3103C241.059 18.6477 267.135 19.953 275.458 31.6999C283.78 43.4468 264.916 77.3824 260.478 84.3436C256.039 91.3047 262.697 113.058 269.91 121.76C277.122 130.461 299.87 157.436 251.046 156.566C202.222 155.695 55.749 157.001 55.749 157.001C55.749 157.001 3.16869 156.231 12.473 116.104C20.2405 82.6033 29.1176 91.7398 27.4532 83.0384Z" fill="#FFF8EF"/>
<path d="M46.317 79.9923C52.4454 79.9923 57.4135 76.0965 57.4135 71.2909C57.4135 66.4852 52.4454 62.5894 46.317 62.5894C40.1887 62.5894 35.2206 66.4852 35.2206 71.2909C35.2206 76.0965 40.1887 79.9923 46.317 79.9923Z" fill="#FBB750" fill-opacity="0.94"/>
<path d="M27.7306 87.8236C31.8672 87.8236 35.2207 85.1939 35.2207 81.9501C35.2207 78.7063 31.8672 76.0766 27.7306 76.0766C23.5939 76.0766 20.2405 78.7063 20.2405 81.9501C20.2405 85.1939 23.5939 87.8236 27.7306 87.8236Z" fill="#FBB750" fill-opacity="0.94"/>
<path d="M28.8402 71.7259C31.1384 71.7259 33.0014 70.265 33.0014 68.4629C33.0014 66.6608 31.1384 65.1999 28.8402 65.1999C26.5421 65.1999 24.6791 66.6608 24.6791 68.4629C24.6791 70.265 26.5421 71.7259 28.8402 71.7259Z" fill="#FBB750" fill-opacity="0.94"/>
<path d="M274.903 138.727C281.031 138.727 285.999 134.831 285.999 130.026C285.999 125.22 281.031 121.324 274.903 121.324C268.775 121.324 263.807 125.22 263.807 130.026C263.807 134.831 268.775 138.727 274.903 138.727Z" fill="#FBB750" fill-opacity="0.94"/>
<path d="M8.31188 30.3941C10.61 30.3941 12.473 28.9332 12.473 27.1311C12.473 25.3289 10.61 23.868 8.31188 23.868C6.01374 23.868 4.15073 25.3289 4.15073 27.1311C4.15073 28.9332 6.01374 30.3941 8.31188 30.3941Z" fill="#FBB750" fill-opacity="0.94"/>
<path d="M77.6644 144.818C88.5423 144.818 97.3605 137.903 97.3605 129.373C97.3605 120.843 88.5423 113.928 77.6644 113.928C66.7865 113.928 57.9683 120.843 57.9683 129.373C57.9683 137.903 66.7865 144.818 77.6644 144.818Z" fill="#FFE9C8"/>
<path d="M207.77 152.214C215.124 152.214 221.085 147.539 221.085 141.772C221.085 136.006 215.124 131.331 207.77 131.331C200.416 131.331 194.454 136.006 194.454 141.772C194.454 147.539 200.416 152.214 207.77 152.214Z" fill="#FFE9C8"/>
<path d="M258.813 93.4795C262.797 93.4795 266.026 90.9473 266.026 87.8236C266.026 84.6999 262.797 82.1677 258.813 82.1677C254.83 82.1677 251.601 84.6999 251.601 87.8236C251.601 90.9473 254.83 93.4795 258.813 93.4795Z" fill="#FFE9C8"/>
<path d="M204.996 48.2321C212.963 48.2321 219.421 43.1676 219.421 36.9202C219.421 30.6728 212.963 25.6083 204.996 25.6083C197.029 25.6083 190.57 30.6728 190.57 36.9202C190.57 43.1676 197.029 48.2321 204.996 48.2321Z" fill="#FFE9C8"/>
<path d="M72.671 12.1211C76.5013 12.1211 79.6063 9.68625 79.6063 6.6827C79.6063 3.67916 76.5013 1.2443 72.671 1.2443C68.8408 1.2443 65.7358 3.67916 65.7358 6.6827C65.7358 9.68625 68.8408 12.1211 72.671 12.1211Z" fill="#FFE9C8"/>
<path d="M50.4782 120.454C54.3085 120.454 57.4135 118.019 57.4135 115.016C57.4135 112.012 54.3085 109.577 50.4782 109.577C46.648 109.577 43.543 112.012 43.543 115.016C43.543 118.019 46.648 120.454 50.4782 120.454Z" fill="#FFE9C8"/>
<path d="M274.071 57.3686C277.901 57.3686 281.006 54.9337 281.006 51.9302C281.006 48.9266 277.901 46.4918 274.071 46.4918C270.24 46.4918 267.135 48.9266 267.135 51.9302C267.135 54.9337 270.24 57.3686 274.071 57.3686Z" fill="#FBB750" fill-opacity="0.94"/>
<path d="M262.974 150.039C267.111 150.039 270.464 147.409 270.464 144.165C270.464 140.922 267.111 138.292 262.974 138.292C258.838 138.292 255.484 140.922 255.484 144.165C255.484 147.409 258.838 150.039 262.974 150.039Z" fill="#FBB750" fill-opacity="0.94"/>
<path d="M279.619 150.474C281.917 150.474 283.78 149.013 283.78 147.211C283.78 145.409 281.917 143.948 279.619 143.948C277.321 143.948 275.458 145.409 275.458 147.211C275.458 149.013 277.321 150.474 279.619 150.474Z" fill="#FBB750" fill-opacity="0.94"/>
</g>
<defs>
<clipPath id="clip0">
<rect width="286" height="157" fill="white"/>
</clipPath>
</defs>
</svg>
